<svg xmlns="http://www.w3.org/2000/svg" xmlns:xlink="http://www.w3.org/1999/xlink" preserveAspectRatio="xMidYMid" width="40" height="40" viewBox="0 0 40 40">
  <defs>
    <style>
      .cls-1 {
        fill: #d8dee9;
        fill-rule: evenodd;
      }
    </style>
  </defs>
  <path d="M40.000,20.000 C40.000,8.972 31.028,-0.000 20.000,-0.000 C8.972,-0.000 0.000,8.972 0.000,20.000 C0.000,24.095 1.239,27.905 3.359,31.079 L3.357,31.093 L3.495,31.295 C3.615,31.470 3.745,31.636 3.870,31.807 C3.921,31.876 3.971,31.946 4.023,32.015 C4.181,32.226 4.345,32.433 4.511,32.636 C4.559,32.695 4.607,32.753 4.656,32.811 C5.427,33.734 6.274,34.579 7.185,35.340 C7.240,35.386 7.295,35.433 7.351,35.479 C7.549,35.641 7.750,35.799 7.955,35.953 C8.037,36.016 8.121,36.077 8.205,36.138 C8.399,36.281 8.594,36.422 8.794,36.557 C8.901,36.630 9.011,36.698 9.119,36.769 C9.397,36.949 9.677,37.123 9.962,37.288 C10.161,37.404 10.360,37.519 10.563,37.629 C10.686,37.695 10.811,37.756 10.935,37.819 C11.151,37.930 11.369,38.037 11.590,38.140 C11.701,38.191 11.813,38.242 11.925,38.291 C12.180,38.405 12.439,38.512 12.699,38.615 C12.780,38.647 12.860,38.679 12.941,38.711 C13.657,38.981 14.391,39.213 15.143,39.401 C15.173,39.409 15.205,39.415 15.235,39.423 C15.567,39.504 15.903,39.577 16.241,39.641 C16.331,39.659 16.421,39.674 16.511,39.690 C16.794,39.740 17.078,39.784 17.365,39.822 C17.474,39.837 17.583,39.851 17.692,39.864 C17.971,39.896 18.253,39.921 18.535,39.942 C18.641,39.950 18.745,39.960 18.851,39.966 C19.231,39.986 19.614,40.000 20.000,40.000 C20.386,40.000 20.769,39.986 21.149,39.965 C21.255,39.959 21.359,39.948 21.465,39.941 C21.747,39.920 22.029,39.895 22.308,39.863 C22.417,39.850 22.527,39.835 22.635,39.821 C22.922,39.783 23.206,39.739 23.489,39.689 C23.579,39.673 23.669,39.657 23.759,39.640 C24.097,39.575 24.433,39.503 24.765,39.421 C24.795,39.414 24.827,39.407 24.857,39.400 C25.609,39.212 26.343,38.980 27.059,38.709 C27.140,38.679 27.221,38.645 27.302,38.613 C27.563,38.511 27.821,38.403 28.076,38.291 C28.188,38.241 28.300,38.191 28.411,38.139 C28.631,38.037 28.849,37.929 29.065,37.819 C29.190,37.755 29.315,37.693 29.437,37.628 C29.641,37.519 29.839,37.403 30.039,37.287 C30.324,37.121 30.605,36.948 30.881,36.768 C30.990,36.697 31.100,36.629 31.207,36.557 C31.406,36.421 31.601,36.280 31.796,36.137 C31.879,36.076 31.963,36.015 32.046,35.953 C32.250,35.799 32.451,35.640 32.650,35.478 C32.706,35.432 32.761,35.385 32.816,35.339 C33.727,34.578 34.573,33.733 35.345,32.809 C35.394,32.751 35.442,32.694 35.489,32.635 C35.655,32.432 35.819,32.225 35.977,32.015 C36.029,31.946 36.079,31.876 36.130,31.806 C36.255,31.635 36.385,31.469 36.505,31.294 L36.643,31.092 L36.641,31.078 C38.761,27.905 40.000,24.095 40.000,20.000 ZM38.667,20.000 C38.667,23.315 37.794,26.428 36.273,29.129 C35.175,25.489 31.897,22.881 28.000,22.688 L28.000,22.667 L27.541,22.667 L24.000,22.667 L23.577,22.667 C23.443,22.667 23.333,22.557 23.333,22.423 L23.333,21.993 C23.333,21.871 23.433,21.791 23.517,21.759 C27.810,20.145 30.487,13.449 29.926,8.767 C29.633,6.328 28.426,4.149 26.671,2.570 C33.678,5.261 38.667,12.057 38.667,20.000 ZM35.025,31.060 C34.971,31.133 34.917,31.205 34.863,31.277 C34.714,31.472 34.564,31.666 34.408,31.855 C34.392,31.875 34.375,31.893 34.359,31.913 C33.821,32.561 33.239,33.171 32.619,33.741 C32.582,33.775 32.545,33.810 32.508,33.843 C32.323,34.011 32.134,34.173 31.943,34.333 C31.883,34.383 31.822,34.433 31.761,34.482 C31.575,34.633 31.388,34.782 31.197,34.926 C31.132,34.975 31.065,35.021 31.000,35.069 C30.890,35.149 30.779,35.227 30.667,35.305 L30.667,28.000 L28.000,28.000 L28.000,24.021 C31.716,24.236 34.759,27.027 35.261,30.730 C35.183,30.841 35.106,30.951 35.025,31.060 ZM28.743,36.486 C28.625,36.549 28.505,36.609 28.385,36.670 C28.183,36.771 27.981,36.869 27.776,36.963 C27.676,37.009 27.577,37.055 27.476,37.099 C27.219,37.211 26.960,37.318 26.699,37.419 C26.645,37.439 26.592,37.462 26.538,37.482 C25.871,37.731 25.190,37.943 24.496,38.115 C24.446,38.128 24.395,38.138 24.345,38.150 C24.058,38.219 23.769,38.281 23.477,38.336 C23.391,38.353 23.304,38.367 23.217,38.383 C22.958,38.428 22.698,38.467 22.437,38.501 C22.336,38.515 22.235,38.529 22.134,38.540 C21.875,38.570 21.615,38.592 21.354,38.611 C21.257,38.618 21.161,38.628 21.064,38.633 C20.710,38.655 20.356,38.667 20.000,38.667 C19.644,38.667 19.290,38.655 18.937,38.635 C18.839,38.629 18.743,38.619 18.647,38.613 C18.386,38.593 18.125,38.571 17.867,38.541 C17.765,38.530 17.665,38.516 17.564,38.503 C17.303,38.468 17.043,38.429 16.784,38.384 C16.697,38.369 16.610,38.354 16.523,38.337 C16.232,38.282 15.942,38.220 15.655,38.151 C15.605,38.139 15.555,38.128 15.505,38.116 C14.811,37.943 14.129,37.732 13.462,37.483 C13.408,37.463 13.355,37.440 13.301,37.419 C13.040,37.319 12.781,37.212 12.525,37.100 C12.424,37.056 12.324,37.010 12.224,36.964 C12.019,36.870 11.817,36.772 11.615,36.671 C11.495,36.610 11.375,36.550 11.257,36.487 C11.085,36.395 10.915,36.298 10.745,36.201 C10.719,36.186 10.692,36.171 10.666,36.156 L10.666,29.333 L11.999,29.333 L15.999,29.333 L23.999,29.333 L27.999,29.333 L29.333,29.333 L29.333,36.155 C29.307,36.171 29.281,36.185 29.254,36.201 C29.085,36.298 28.915,36.395 28.743,36.486 ZM8.804,34.926 C8.613,34.782 8.425,34.633 8.240,34.483 C8.179,34.433 8.118,34.383 8.057,34.333 C7.866,34.174 7.677,34.011 7.493,33.844 C7.455,33.810 7.419,33.775 7.381,33.741 C6.761,33.171 6.179,32.561 5.641,31.913 C5.625,31.893 5.609,31.875 5.593,31.855 C5.437,31.666 5.287,31.472 5.138,31.277 C5.083,31.205 5.029,31.133 4.975,31.060 C4.895,30.951 4.819,30.841 4.741,30.730 C5.241,27.027 8.284,24.236 12.000,24.021 L12.000,28.000 L9.333,28.000 L9.333,35.305 C9.222,35.227 9.110,35.149 9.000,35.069 C8.935,35.021 8.869,34.975 8.804,34.926 ZM16.994,20.527 C13.806,19.348 11.333,13.900 11.333,10.000 C11.333,9.915 11.343,9.831 11.346,9.747 L11.834,9.145 C12.935,7.835 14.814,7.461 16.509,8.211 C17.190,8.514 17.916,8.667 18.667,8.667 C20.647,8.667 22.427,7.590 23.352,5.877 C25.473,6.574 27.367,7.887 28.647,9.543 C28.843,13.609 26.451,19.231 23.049,20.511 C22.411,20.751 22.000,21.333 22.000,21.993 L22.000,22.423 C22.000,23.292 22.708,24.000 23.577,24.000 L24.000,24.000 L24.000,28.000 L16.000,28.000 L16.000,24.000 L16.423,24.000 C17.292,24.000 18.000,23.292 18.000,22.423 L18.000,22.000 C18.000,21.343 17.597,20.751 16.994,20.527 ZM20.027,1.335 C20.035,1.335 20.041,1.335 20.049,1.335 C20.375,1.337 20.695,1.355 21.002,1.390 C24.308,1.759 27.086,4.060 28.170,7.116 C26.760,5.888 25.031,4.943 23.172,4.431 L22.599,4.274 L22.377,4.825 C21.763,6.348 20.307,7.333 18.667,7.333 C18.103,7.333 17.559,7.219 17.049,6.993 C15.205,6.177 13.191,6.397 11.704,7.479 C12.113,6.128 12.851,4.891 13.878,3.865 C15.514,2.233 17.687,1.335 20.027,1.335 ZM26.667,28.000 L25.333,28.000 L25.333,24.000 L26.667,24.000 L26.667,28.000 ZM14.667,28.000 L13.333,28.000 L13.333,24.000 L14.667,24.000 L14.667,28.000 ZM13.321,2.573 C13.193,2.689 13.060,2.799 12.936,2.922 C11.043,4.812 10.000,7.325 10.000,10.000 C10.000,14.419 12.793,20.395 16.531,21.777 C16.611,21.807 16.667,21.899 16.667,22.000 L16.667,22.423 C16.667,22.557 16.557,22.667 16.423,22.667 L16.000,22.667 L12.459,22.667 L12.000,22.667 L12.000,22.688 C8.103,22.881 4.825,25.489 3.727,29.129 C2.206,26.428 1.333,23.315 1.333,20.000 C1.333,12.060 6.319,5.267 13.321,2.573 Z" class="cls-1"/>
</svg>
