<?xml version="1.0" encoding="UTF-8"?>
<svg width="21px" height="21px" viewBox="0 0 21 21" version="1.1" xmlns="http://www.w3.org/2000/svg" xmlns:xlink="http://www.w3.org/1999/xlink">
    <!-- Generator: Sketch 3.8.1 (29687) - http://www.bohemiancoding.com/sketch -->
    <title>rule-ico-plus</title>
    <desc>Created with Sketch.</desc>
    <defs></defs>
    <g id="Page-1" stroke="none" stroke-width="1" fill="none" fill-rule="evenodd">
        <g id="rule-ico-plus" fill="#FFFFFF">
            <g id="Page-1">
                <path d="M10.5,21 C4.711,21 0,16.29 0,10.5 C0,4.71 4.711,0 10.5,0 C16.29,0 21,4.71 21,10.5 C21,16.29 16.29,21 10.5,21 L10.5,21 L10.5,21 Z M10.5,0.808 C5.156,0.808 0.808,5.156 0.808,10.5 C0.808,15.844 5.156,20.192 10.5,20.192 C15.844,20.192 20.192,15.844 20.192,10.5 C20.192,5.156 15.844,0.808 10.5,0.808 L10.5,0.808 L10.5,0.808 Z M15.548,10.904 L10.904,10.904 L10.904,15.75 C10.904,15.973 10.723,16.154 10.5,16.154 C10.277,16.154 10.096,15.973 10.096,15.75 L10.096,10.904 L5.452,10.904 C5.229,10.904 5.048,10.723 5.048,10.5 C5.048,10.277 5.229,10.096 5.452,10.096 L10.096,10.096 L10.096,5.654 C10.096,5.431 10.277,5.25 10.5,5.25 C10.723,5.25 10.904,5.431 10.904,5.654 L10.904,10.096 L15.548,10.096 C15.771,10.096 15.952,10.277 15.952,10.5 C15.952,10.723 15.771,10.904 15.548,10.904 L15.548,10.904 L15.548,10.904 Z" id="Shape"></path>
            </g>
        </g>
    </g>
</svg>