<?xml version="1.0" encoding="UTF-8"?>
<svg width="12px" height="15px" viewBox="0 0 12 15" version="1.1" xmlns="http://www.w3.org/2000/svg" xmlns:xlink="http://www.w3.org/1999/xlink">
    <!-- Generator: Sketch 3.8.1 (29687) - http://www.bohemiancoding.com/sketch -->
    <title>apple-ico</title>
    <desc>Created with Sketch.</desc>
    <defs></defs>
    <g id="Page-1" stroke="none" stroke-width="1" fill="none" fill-rule="evenodd">
        <g id="apple-ico" fill="#000000">
            <path d="M9.88595122,7.76107317 C9.86780488,5.93707317 11.3733659,5.0622439 11.4406829,5.01804878 C10.5945366,3.78087805 9.27629268,3.61112195 8.80712195,3.59180488 C7.68614634,3.47795122 6.61873171,4.25209756 6.05004878,4.25209756 C5.48253659,4.25209756 4.60390244,3.6084878 3.67434146,3.62487805 C2.4515122,3.64302439 1.32439024,4.33609756 0.695121951,5.43073171 C-0.574829268,7.6337561 0.370243902,10.8986341 1.60770732,12.6866341 C2.21268293,13.5605854 2.93414634,14.544 3.88068293,14.508 C4.79297561,14.472 5.13717073,13.9179512 6.24,13.9179512 C7.34282927,13.9179512 7.6524878,14.508 8.61746341,14.489561 C9.59853659,14.4717073 10.2204878,13.5989268 10.8204878,12.7214634 C11.5150244,11.7061463 11.8009756,10.7230244 11.8179512,10.6732683 C11.7965854,10.6633171 9.90556098,9.93892683 9.88595122,7.76107317 L9.88595122,7.76107317 Z" id="Shape"></path>
            <path d="M8.07278049,2.4084878 C8.57473171,1.79912195 8.91482927,0.952390244 8.82234146,0.109463415 C8.09795122,0.138731707 7.22107317,0.590926829 6.70097561,1.19970732 C6.23502439,1.74 5.82760976,2.60019512 5.93678049,3.42790244 C6.74487805,3.49053659 7.56907317,3.01668293 8.07278049,2.4084878 L8.07278049,2.4084878 Z" id="Shape"></path>
        </g>
    </g>
</svg>