<?xml version="1.0" encoding="UTF-8"?>
<svg width="19px" height="22px" viewBox="0 0 19 22" version="1.1" xmlns="http://www.w3.org/2000/svg" xmlns:xlink="http://www.w3.org/1999/xlink">
    <!-- Generator: Sketch 3.8.1 (29687) - http://www.bohemiancoding.com/sketch -->
    <title>Shape</title>
    <desc>Created with Sketch.</desc>
    <defs></defs>
    <g id="Page-1" stroke="none" stroke-width="1" fill="none" fill-rule="evenodd">
        <path d="M18.925,18.52 C18.88,18.663 18.762,18.769 18.617,18.794 L14.898,19.45 C14.209,19.571 13.574,19.671 12.969,19.753 C12.285,21.122 10.942,22 9.474,22 C8.006,22 6.663,21.122 5.979,19.754 C5.371,19.672 4.733,19.572 4.04,19.45 L0.32,18.794 C0.176,18.769 0.057,18.663 0.013,18.52 C-0.031,18.378 0.007,18.222 0.11,18.116 C1.854,16.348 2.739,14.155 2.739,11.6 L2.739,8 C2.754,5.472 4.493,3.527 6.209,2.72 C6.61,2.531 7.023,2.38 7.443,2.264 L7.443,2 C7.443,0.897 8.322,0 9.402,0 C10.483,0 11.362,0.897 11.362,2 L11.362,2.23 C11.828,2.348 12.287,2.508 12.732,2.716 C14.285,3.44 16.092,5.26 16.075,8.002 L16.075,11.6 C16.075,14.072 17.001,16.264 18.828,18.116 C18.931,18.222 18.969,18.378 18.925,18.52 L18.925,18.52 Z M9.474,21.2 C10.466,21.2 11.394,20.696 11.99,19.873 C11.11,19.966 10.29,20.012 9.469,20.012 C8.652,20.012 7.834,19.966 6.958,19.874 C7.554,20.697 8.481,21.2 9.474,21.2 L9.474,21.2 Z M10.578,2 C10.578,1.338 10.05,0.8 9.402,0.8 C8.754,0.8 8.226,1.338 8.226,2 L8.226,2.092 C9.004,1.963 9.797,1.958 10.578,2.073 L10.578,2 L10.578,2 Z M11.917,4.535 C10.398,3.827 8.539,3.826 7.03,4.536 C6.169,4.941 4.71,6.125 4.698,7.998 C4.697,8.218 4.871,8.398 5.088,8.4 L5.09,8.4 C5.306,8.4 5.481,8.223 5.482,8.002 C5.491,6.532 6.666,5.588 7.358,5.262 C8.664,4.648 10.276,4.649 11.591,5.262 C11.787,5.354 12.02,5.266 12.11,5.065 C12.201,4.864 12.114,4.627 11.917,4.535 L11.917,4.535 Z" id="Shape" fill="#FFDE00"></path>
    </g>
</svg>