<?xml version="1.0" encoding="UTF-8"?>
<svg width="13px" height="13px" viewBox="0 0 13 13" version="1.1" xmlns="http://www.w3.org/2000/svg" xmlns:xlink="http://www.w3.org/1999/xlink">
    <!-- Generator: Sketch 3.8.1 (29687) - http://www.bohemiancoding.com/sketch -->
    <title>chrome</title>
    <desc>Created with Sketch.</desc>
    <defs></defs>
    <g id="Page-1" stroke="none" stroke-width="1" fill="none" fill-rule="evenodd">
        <g id="chrome">
            <ellipse id="_337336272" fill="#FFFFFE" cx="6.5" cy="6.5" rx="3.891987" ry="3.891987"></ellipse>
            <circle id="_337335816" fill="#3C8FC8" cx="6.5" cy="6.5" r="2.53428999"></circle>
            <path d="M5.95775293,12.9686411 C2.63443563,12.6915543 0.00844408322,9.89283095 0.00844408322,6.50001691 C0.00844408322,5.16192133 0.416961053,3.91619506 1.11554031,2.88107217 L2.92712159,6.13069181 L3.58632978,7.31316775 C3.94301411,8.58659298 5.11534278,9.5251541 6.50000338,9.5251541 C7.18598667,9.5251541 7.81975696,9.29466951 8.32818544,8.90735657 L5.95774785,12.9686394 L5.95775293,12.9686411 Z" id="_337334928" fill="#58BE5B"></path>
            <path d="M5.56973082,12.9276197 L5.57006784,12.924055 C5.60328434,12.9575446 5.63643339,12.9924412 5.66973082,13.024055 C5.63633911,12.993192 5.60301475,12.9610158 5.56973091,12.9276203 L5.56973082,12.9276197 Z M7.45488296,3.62985696 L12.3302042,3.65061224 C12.7533668,4.51165516 12.9915593,5.47882811 12.9915593,6.50000431 C12.9915593,10.0754269 10.075426,12.9915602 6.50000338,12.9915602 C6.21279298,12.9915602 5.92995592,12.9723523 5.65244226,12.9358134 C5.75347373,12.949211 5.85529298,12.9600828 5.95775208,12.9686286 L8.32818966,8.90734575 C9.05468596,8.35393034 9.52513635,7.4802027 9.52513635,6.5000044 C9.52513635,5.16725082 8.65558173,4.03123001 7.45487367,3.62986135 L7.45488296,3.62985696 Z" id="_337335432" fill="#FDD800"></path>
            <path d="M6.5,0.00843563069 C9.05375618,0.00843563069 11.2707718,1.49625943 12.3294265,3.64932315 L7.75773732,3.62985569 C7.76023315,3.63069429 7.76270901,3.6315229 7.76519486,3.63235152 L7.45859687,3.63105369 C7.15716085,3.52979316 6.83481918,3.47486436 6.49999479,3.47486436 C4.83380559,3.47486436 3.4748576,4.83381234 3.4748576,6.50000155 C3.4748576,6.78156143 3.51380249,7.05425545 3.58634148,7.31319296 L2.927113,6.13067476 L1.11570923,2.88135096 C2.28373133,1.15053367 4.26259674,0.008435487 6.49999141,0.008435487 L6.5,0.00843563069 Z" id="_337335240" fill="#EE6150"></path>
        </g>
    </g>
</svg>