<?xml version="1.0" encoding="UTF-8"?>
<svg width="21px" height="21px" viewBox="0 0 21 21" version="1.1" xmlns="http://www.w3.org/2000/svg" xmlns:xlink="http://www.w3.org/1999/xlink">
    <!-- Generator: Sketch 3.8.1 (29687) - http://www.bohemiancoding.com/sketch -->
    <title>plus-ico</title>
    <desc>Created with Sketch.</desc>
    <defs></defs>
    <g id="Page-1" stroke="none" stroke-width="1" fill="none" fill-rule="evenodd">
        <g id="plus-ico" fill="#FFFFFF">
            <path d="M10.4837633,0.000828402367 C4.69559172,0.000828402367 0.00447337278,4.69194675 0.00447337278,10.4801183 C0.00447337278,16.2682899 4.69559172,20.9592012 10.4837633,20.9592012 C16.2719349,20.9592012 20.9630533,16.2682899 20.9630533,10.4801183 C20.9630533,4.69194675 16.2719763,0.000828402367 10.4837633,0.000828402367 L10.4837633,0.000828402367 Z M10.4837633,20.120858 C5.16798817,20.120858 0.842816568,15.7958935 0.842816568,10.4801183 C0.842816568,5.16430178 5.16798817,0.839171598 10.4837633,0.839171598 C15.7995385,0.839171598 20.1247101,5.16430178 20.1247101,10.4801183 C20.1247101,15.7958935 15.7995385,20.120858 10.4837633,20.120858 L10.4837633,20.120858 Z" id="Shape"></path>
            <polygon id="Shape" points="10.9029349 4.19254438 10.0645917 4.19254438 10.0645917 10.0609467 4.22402367 10.0609467 4.22402367 10.8992899 10.0645917 10.8992899 10.0645917 16.739858 10.9029349 16.739858 10.9029349 10.8992899 16.7713373 10.8992899 16.7713373 10.0609467 10.9029349 10.0609467"></polygon>
        </g>
    </g>
</svg>