<?xml version="1.0" encoding="UTF-8"?>
<svg width="5px" height="24px" viewBox="0 0 5 24" version="1.1" xmlns="http://www.w3.org/2000/svg" xmlns:xlink="http://www.w3.org/1999/xlink">
    <!-- Generator: Sketch 3.8.1 (29687) - http://www.bohemiancoding.com/sketch -->
    <title>Shape</title>
    <desc>Created with Sketch.</desc>
    <defs></defs>
    <g id="Page-1" stroke="none" stroke-width="1" fill="none" fill-rule="evenodd">
        <path d="M2.5,14.667 C1.119,14.667 0,13.473 0,12 C0,10.527 1.119,9.333 2.5,9.333 C3.881,9.333 5,10.527 5,12 C5,13.473 3.881,14.667 2.5,14.667 L2.5,14.667 Z M2.5,5.333 C1.119,5.333 0,4.139 0,2.667 C0,1.194 1.119,0 2.5,0 C3.881,0 5,1.194 5,2.667 C5,4.139 3.881,5.333 2.5,5.333 L2.5,5.333 Z M2.5,18.667 C3.881,18.667 5,19.861 5,21.333 C5,22.806 3.881,24 2.5,24 C1.119,24 0,22.806 0,21.333 C0,19.861 1.119,18.667 2.5,18.667 L2.5,18.667 Z" id="Shape" fill="#CCD1DC"></path>
    </g>
</svg>