<svg xmlns="http://www.w3.org/2000/svg" xmlns:xlink="http://www.w3.org/1999/xlink" preserveAspectRatio="xMidYMid" width="15" height="15" viewBox="0 0 15 15">
  <defs>
    <style>
      .cls-1 {
        fill: #e5274f;
        fill-rule: evenodd;
      }
    </style>
  </defs>
  <path d="M14.655,8.195 C14.655,8.195 13.763,8.195 13.466,8.195 C13.423,8.195 13.422,8.226 13.420,8.241 C13.099,10.946 10.968,13.094 8.272,13.443 C8.247,13.447 8.195,13.461 8.195,13.495 C8.195,13.785 8.195,14.655 8.195,14.655 C8.195,14.845 8.040,15.000 7.851,15.000 L7.149,15.000 C6.960,15.000 6.805,14.845 6.805,14.655 C6.805,14.655 6.805,13.785 6.805,13.495 C6.805,13.463 6.760,13.447 6.737,13.444 C4.043,13.100 1.911,10.959 1.582,8.260 C1.579,8.238 1.576,8.195 1.530,8.195 C1.234,8.195 0.345,8.195 0.345,8.195 C0.155,8.195 -0.000,8.040 -0.000,7.851 L-0.000,7.149 C-0.000,6.960 0.155,6.805 0.345,6.805 C0.345,6.805 1.239,6.805 1.536,6.805 C1.580,6.805 1.586,6.763 1.589,6.742 C1.750,5.526 2.277,4.425 3.056,3.554 C3.980,2.522 5.258,1.814 6.699,1.621 C6.734,1.616 6.805,1.596 6.805,1.539 C6.805,1.240 6.805,0.345 6.805,0.345 C6.805,0.155 6.960,0.000 7.149,0.000 L7.851,0.000 C8.040,0.000 8.195,0.155 8.195,0.345 C8.195,0.345 8.195,1.240 8.195,1.539 C8.195,1.609 8.266,1.616 8.301,1.621 C10.961,1.978 13.065,4.089 13.412,6.752 C13.415,6.770 13.418,6.805 13.459,6.805 C13.758,6.805 14.655,6.805 14.655,6.805 C14.845,6.805 15.000,6.960 15.000,7.149 L15.000,7.851 C15.000,8.040 14.845,8.195 14.655,8.195 ZM12.057,6.805 C12.057,6.805 12.178,6.805 12.219,6.805 C12.281,6.805 12.270,6.741 12.264,6.710 C11.919,4.689 10.320,3.097 8.296,2.762 C8.263,2.756 8.195,2.744 8.195,2.784 C8.195,2.824 8.195,2.943 8.195,2.943 C8.195,3.132 8.040,3.287 7.851,3.287 L7.149,3.287 C6.960,3.287 6.805,3.132 6.805,2.943 C6.805,2.943 6.805,2.824 6.805,2.784 C6.805,2.742 6.741,2.756 6.710,2.761 C5.599,2.943 4.616,3.504 3.897,4.307 C3.292,4.983 2.875,5.830 2.726,6.767 C2.724,6.779 2.720,6.805 2.756,6.805 L2.943,6.805 C3.132,6.805 3.287,6.960 3.287,7.149 L3.287,7.851 C3.287,8.040 3.132,8.195 2.943,8.195 L2.747,8.195 C2.701,8.195 2.718,8.238 2.721,8.259 C3.032,10.318 4.642,11.951 6.690,12.296 C6.728,12.302 6.805,12.307 6.805,12.250 C6.805,12.202 6.805,12.057 6.805,12.057 C6.805,11.868 6.960,11.713 7.149,11.713 L7.851,11.713 C8.040,11.713 8.195,11.868 8.195,12.057 C8.195,12.057 8.195,12.202 8.195,12.250 C8.195,12.310 8.260,12.305 8.293,12.299 C10.341,11.961 11.955,10.335 12.275,8.281 C12.280,8.252 12.288,8.195 12.227,8.195 C12.184,8.195 12.057,8.195 12.057,8.195 C11.868,8.195 11.713,8.040 11.713,7.851 L11.713,7.149 C11.713,6.960 11.868,6.805 12.057,6.805 ZM9.484,9.668 C8.943,10.170 8.238,10.447 7.500,10.447 C5.892,10.447 4.584,9.138 4.584,7.530 C4.584,6.811 4.847,6.121 5.327,5.586 C5.879,4.968 6.671,4.613 7.500,4.613 C9.108,4.613 10.416,5.922 10.416,7.530 C10.416,7.608 10.413,7.686 10.407,7.763 C10.350,8.492 10.022,9.169 9.484,9.668 ZM7.500,5.384 C6.890,5.384 6.308,5.645 5.901,6.099 C5.548,6.493 5.354,7.001 5.354,7.530 C5.354,8.713 6.317,9.676 7.500,9.676 C8.611,9.676 9.529,8.844 9.636,7.740 C9.642,7.671 9.646,7.601 9.646,7.530 C9.646,6.347 8.683,5.384 7.500,5.384 Z" class="cls-1"/>
</svg>
