<?xml version="1.0" encoding="utf-8"?>
<!-- Generator: Adobe Illustrator 17.0.0, SVG Export Plug-In . SVG Version: 6.00 Build 0)  -->
<!DOCTYPE svg PUBLIC "-//W3C//DTD SVG 1.1//EN" "http://www.w3.org/Graphics/SVG/1.1/DTD/svg11.dtd" [
	<!ENTITY ns_extend "http://ns.adobe.com/Extensibility/1.0/">
	<!ENTITY ns_ai "http://ns.adobe.com/AdobeIllustrator/10.0/">
	<!ENTITY ns_graphs "http://ns.adobe.com/Graphs/1.0/">
	<!ENTITY ns_vars "http://ns.adobe.com/Variables/1.0/">
	<!ENTITY ns_imrep "http://ns.adobe.com/ImageReplacement/1.0/">
	<!ENTITY ns_sfw "http://ns.adobe.com/SaveForWeb/1.0/">
	<!ENTITY ns_custom "http://ns.adobe.com/GenericCustomNamespace/1.0/">
	<!ENTITY ns_adobe_xpath "http://ns.adobe.com/XPath/1.0/">
]>
<svg version="1.1" id="Layer_1" xmlns:x="&ns_extend;" xmlns:i="&ns_ai;" xmlns:graph="&ns_graphs;"
	 xmlns="http://www.w3.org/2000/svg" xmlns:xlink="http://www.w3.org/1999/xlink" x="0px" y="0px" width="20px" height="20px"
	 viewBox="0 0 20 20" enable-background="new 0 0 20 20" xml:space="preserve">
<metadata>
	<sfw  xmlns="&ns_sfw;">
		<slices></slices>
		<sliceSourceBounds  height="19.875" width="19.875" x="0" y="-19.875" bottomLeftOrigin="true"></sliceSourceBounds>
		<optimizationSettings></optimizationSettings>
	</sfw>
</metadata>
<g>
	<g>
		<path d="M10.139,5.412H6.94v10.015h2.124v-3.562h0.911c1.242,0,2.2-0.285,2.874-0.856c0.674-0.571,1.01-1.395,1.01-2.473
			c0-1.037-0.316-1.816-0.949-2.339C12.277,5.673,11.354,5.412,10.139,5.412L10.139,5.412z M9.064,10.125V7.152h0.966
			c0.58,0,1.006,0.119,1.277,0.356c0.272,0.238,0.408,0.605,0.408,1.103c0,0.493-0.162,0.869-0.486,1.127
			c-0.324,0.258-0.813,0.387-1.466,0.387H9.064L9.064,10.125z"/>
	</g>
	<g>
		<polygon points="10.522,10.522 5.846,10.522 5.846,11.691 10.522,11.691 10.522,10.522 		"/>
	</g>
	<g>
		<polygon points="11.691,12.861 5.846,12.861 5.846,14.029 11.691,14.029 11.691,12.861 		"/>
	</g>
	<g>
		<path d="M9.937,2c4.377,0,7.937,3.561,7.937,7.938c0,4.377-3.561,7.937-7.937,7.937S2,14.314,2,9.938C2,5.561,5.561,2,9.937,2
			 M9.937,0C4.449,0,0,4.449,0,9.938c0,5.488,4.449,9.937,9.937,9.937c5.488,0,9.937-4.449,9.937-9.937
			C19.875,4.449,15.426,0,9.937,0L9.937,0z"/>
	</g>
</g>
</svg>
